<svg width="1443" height="964" viewBox="0 0 1443 964" fill="none" xmlns="http://www.w3.org/2000/svg">
<g clip-path="url(#clip0_0_240)">
<path fill-rule="evenodd" clip-rule="evenodd" d="M230.611 600.736C249.296 587.132 258.562 564.858 265.533 561.066C270.662 558.277 270.569 539.029 280.85 532.217C294.647 523.075 338.613 516.277 354.609 515.006C369.962 513.786 396.666 516.349 411.071 521.973C435.093 531.351 444.674 549.241 455.253 572.288C455.253 572.288 217.774 610.083 230.611 600.736Z" fill="#EDB98A"/>
<path fill-rule="evenodd" clip-rule="evenodd" d="M579.079 616.63H199.403L67.985 733.579L9.65503 1225.14L92.621 1250.98L605.248 1259.55L765.347 1214.27L775.336 872.107L579.079 616.63Z" fill="#859D56"/>
<path fill-rule="evenodd" clip-rule="evenodd" d="M63.0405 1135.84C65.6856 1134.52 68.4426 1133.01 71.463 1132.9C76.6503 1132.72 76.6573 1124.65 71.463 1124.83C66.9324 1124.99 62.9537 1126.88 58.967 1128.87C54.3154 1131.19 58.407 1138.15 63.0405 1135.84ZM71.463 908.6C67.9231 908.603 64.3549 909.05 61.6362 911.527C60.0201 913 60.1482 915.746 61.6362 917.235C63.2291 918.827 65.733 918.703 67.344 917.235C66.8184 917.713 67.339 917.239 67.5297 917.134C67.575 917.109 67.6003 917.092 67.6124 917.081C67.6527 917.071 67.6931 917.063 67.7586 917.046C68.1803 916.94 68.5969 916.836 69.0237 916.759C69.0308 916.779 69.9246 916.7 70.1343 916.692C70.5782 916.675 71.0201 916.673 71.463 916.673C73.652 916.672 75.4982 914.828 75.4982 912.637C75.4982 910.457 73.644 908.599 71.463 908.6ZM109.409 999.156C110.565 1004.23 118.344 1002.07 117.191 997.009C115.514 989.656 115.82 982.122 117.191 974.742C118.135 969.656 110.356 967.495 109.409 972.596C107.765 981.449 107.397 990.332 109.409 999.156ZM119.602 709.02C125.612 707.592 131.557 707.423 137.705 707.421C142.906 707.419 142.898 699.346 137.705 699.348C130.848 699.35 124.155 699.644 117.456 701.236C112.398 702.438 114.553 710.219 119.602 709.02ZM139.742 905.66C143.227 903.916 146.715 902.172 150.2 900.428C154.853 898.102 150.76 891.141 146.127 893.457L135.668 898.69C131.018 901.016 135.109 907.977 139.742 905.66ZM141.193 1064.64C145.615 1071.02 151.832 1074.98 159.293 1076.96C164.327 1078.29 166.456 1070.5 161.439 1069.17C156.104 1067.76 151.363 1065.18 148.162 1060.56C145.219 1056.32 138.226 1060.36 141.193 1064.64ZM169.08 780.403C170.276 778.167 172.077 777.222 174.312 777.172C179.506 777.053 179.507 768.98 174.312 769.099C169.218 769.214 164.546 771.773 162.112 776.329C159.662 780.914 166.631 784.988 169.08 780.403ZM220.268 835.278C221.715 836.854 224.521 836.815 225.975 835.278C226.866 834.337 227.615 833.287 228.204 832.135C228.428 831.698 228.638 831.253 228.885 830.828C228.995 830.64 229.117 830.452 229.242 830.27C229.284 830.233 229.372 830.142 229.463 830.046C231.013 828.407 230.974 825.986 229.463 824.338C228.015 822.761 225.21 822.801 223.755 824.338C222.865 825.278 222.116 826.329 221.527 827.48C221.303 827.917 221.093 828.362 220.845 828.788C220.735 828.977 220.613 829.163 220.488 829.345C220.446 829.382 220.359 829.473 220.268 829.569C218.717 831.209 218.756 833.63 220.268 835.278ZM224.572 954.486C229.828 956.891 235.592 956.891 240.848 954.486C242.838 953.574 243.31 950.699 242.295 948.963C241.118 946.95 238.755 946.608 236.774 947.514C234.391 948.605 231.025 948.604 228.645 947.514C226.655 946.604 224.315 946.927 223.124 948.963C222.102 950.71 222.59 953.578 224.572 954.486ZM238.908 1038.86C239.811 1041 241.761 1042.14 244.041 1042.23C246.3 1042.31 247.981 1040.31 248.076 1038.19C248.137 1036.82 247.397 1035.65 246.335 1034.93C246.334 1034.85 246.332 1034.78 246.332 1034.7C246.331 1032.44 244.484 1030.76 242.297 1030.66C240.119 1030.57 238.26 1032.59 238.261 1034.7C238.263 1036.13 238.35 1037.54 238.908 1038.86ZM259.73 1173.01C266.17 1173.11 272.463 1174.65 278.904 1174.75C284.109 1174.84 284.092 1166.76 278.904 1166.68C272.464 1166.57 266.171 1165.04 259.73 1164.94C254.525 1164.85 254.542 1172.92 259.73 1173.01ZM286.511 655.668C290.281 659.261 294.938 661.031 299.53 663.275C304.183 665.549 308.269 658.585 303.604 656.304C299.714 654.403 295.407 652.998 292.217 649.961C288.454 646.375 282.742 652.078 286.511 655.668ZM296.631 748.72C299.276 747.399 302.033 745.889 305.052 745.784C310.241 745.602 310.248 737.529 305.052 737.711C300.523 737.868 296.544 739.758 292.557 741.749C287.904 744.072 291.996 751.033 296.631 748.72ZM345.145 1122.18C346.34 1119.95 348.14 1119 350.376 1118.95C355.57 1118.83 355.572 1110.76 350.376 1110.88C345.281 1110.99 340.61 1113.55 338.175 1118.11C335.726 1122.69 342.695 1126.77 345.145 1122.18ZM361.946 946.879C363.552 945.404 363.44 942.666 361.946 941.171C360.202 939.427 358.459 937.683 356.715 935.94C355.121 934.344 352.62 934.46 351.009 935.94C349.403 937.414 349.515 940.153 351.009 941.648C352.753 943.392 354.496 945.135 356.239 946.879C357.835 948.475 360.335 948.358 361.946 946.879ZM381.755 1220.09C387.576 1219.96 393.034 1218.28 398.516 1216.46C403.428 1214.82 401.309 1207.03 396.37 1208.68C391.606 1210.26 386.82 1211.9 381.755 1212.02C376.56 1212.14 376.558 1220.21 381.755 1220.09ZM407.903 1047.46C413.163 1047.31 417.526 1044.63 421.215 1041.04C424.946 1037.41 419.234 1031.71 415.508 1035.34C413.397 1037.39 410.96 1039.3 407.903 1039.38C402.71 1039.53 402.706 1047.6 407.903 1047.46ZM391.665 825.448C391.601 827.597 390.694 829.9 389.36 831.313C385.794 835.091 391.493 840.807 395.067 837.022C398.014 833.899 399.611 829.72 399.735 825.448C399.885 820.243 391.813 820.265 391.665 825.448ZM453.223 649.621C454.912 646.313 457.125 642.434 460.492 640.606C465.064 638.125 460.985 631.157 456.418 633.635C451.842 636.119 448.568 641.016 446.254 645.546C443.894 650.169 450.861 654.248 453.223 649.621ZM463.684 733.577C465.557 733.524 467.415 733.203 469.221 732.714C469.993 732.504 470.755 732.262 471.528 732.053C471.859 731.963 473.264 731.787 472.401 731.834C474.586 731.717 476.436 730.08 476.436 727.797C476.436 725.699 474.58 723.643 472.401 723.761C469.405 723.921 466.682 725.42 463.684 725.504C458.494 725.651 458.49 733.724 463.684 733.577ZM489.833 862.616H498.549C503.75 862.616 503.741 854.543 498.549 854.543H489.833C484.631 854.543 484.64 862.616 489.833 862.616ZM499.999 1219.54C502.642 1220.86 505.758 1222.12 507.898 1224.14C511.673 1227.71 517.387 1222.01 513.605 1218.43C510.878 1215.85 507.392 1214.23 504.072 1212.57C502.116 1211.59 499.711 1212.03 498.551 1214.02C497.503 1215.81 498.05 1218.56 499.999 1219.54ZM519.474 1117.54C519.812 1117.44 520.169 1117.38 520.511 1117.33C521.883 1117.14 523.319 1117.21 524.697 1117.21C529.898 1117.21 529.89 1109.13 524.697 1109.14C520.604 1109.14 516.345 1109.19 513.127 1112.06C511.494 1113.52 511.652 1116.29 513.127 1117.77C514.731 1119.37 517.208 1119.22 518.834 1117.77C518.662 1117.92 519.25 1117.6 519.474 1117.54ZM524.695 980.351C523.523 977.933 523.504 976.356 523.502 973.669C523.498 968.466 515.428 968.474 515.432 973.669C515.434 977.57 516.014 980.893 517.726 984.426C518.681 986.395 521.478 986.909 523.246 985.874C525.23 984.714 525.644 982.311 524.695 980.351ZM548.029 790.978C552.71 792.57 556.889 794.825 561.011 797.546C565.362 800.418 569.4 793.424 565.084 790.575C560.38 787.47 555.515 785.01 550.175 783.192C545.238 781.513 543.139 789.314 548.029 790.978ZM575.25 655.107C578.727 655.204 582.317 656.538 585.416 658.044C590.073 660.306 594.16 653.342 589.488 651.073C585.062 648.921 580.218 647.173 575.25 647.034C570.046 646.888 570.068 654.962 575.25 655.107ZM587.452 1017.81C588.82 1017.87 589.99 1017.13 590.714 1016.07C590.79 1016.07 590.864 1016.07 590.939 1016.07C593.201 1016.07 594.875 1014.22 594.974 1012.03C595.072 1009.85 593.049 1007.99 590.939 1008C589.514 1008 588.101 1008.08 586.778 1008.64C584.64 1009.54 583.504 1011.5 583.417 1013.78C583.331 1016.04 585.335 1017.72 587.452 1017.81ZM607.299 738.664C612.255 740.284 614.359 732.487 609.444 730.88C603.675 728.994 597.78 727.534 592.011 725.648C587.055 724.028 584.951 731.827 589.867 733.433C595.634 735.318 601.53 736.778 607.299 738.664ZM625.398 891.041C626.935 895.996 634.722 893.869 633.18 888.895C631.691 884.093 631.585 879.262 631.582 874.274C631.578 869.071 623.508 869.08 623.511 874.274C623.514 879.951 623.705 885.577 625.398 891.041ZM679.355 1073.55C679.649 1075.56 681.243 1077.01 683.329 1077.1C685.453 1077.2 687.441 1075.18 687.364 1073.06C687.216 1069 683.904 1065.69 679.843 1065.54C677.583 1065.46 675.902 1067.46 675.807 1069.58C675.715 1071.64 677.436 1073.25 679.355 1073.55ZM706.662 841.547C710.926 842.971 715.483 844.327 718.826 847.484C722.604 851.05 728.318 845.35 724.533 841.776C720.124 837.613 714.454 835.648 708.806 833.762C703.861 832.111 701.76 839.911 706.662 841.547ZM725.168 998.376C726.34 1000.38 728.714 1000.74 730.688 999.824C733.335 998.593 736.258 998.634 739.112 998.631C744.312 998.627 744.304 990.554 739.112 990.558C734.709 990.562 730.648 990.977 726.615 992.853C724.63 993.777 724.147 996.63 725.168 998.376ZM735.625 1188.7C737.885 1188.79 739.566 1186.79 739.661 1184.67C739.753 1182.61 738.033 1181 736.112 1180.69C735.819 1178.68 734.224 1177.24 732.139 1177.14C730.014 1177.05 728.026 1179.07 728.104 1181.18C728.252 1185.24 731.562 1188.55 735.625 1188.7ZM0.383728 1219.23C1.7547 1214.29 4.89209 1210.31 7.26276 1205.87C8.05768 1204.37 8.33411 1203.44 8.76489 1202.34C9.34998 1203.52 10.4859 1204.4 12.1938 1204.4C15.4704 1204.4 19.3028 1204.19 22.3605 1205.59C24.3488 1206.5 26.6913 1206.18 27.8807 1204.14C28.9026 1202.39 28.4143 1199.53 26.433 1198.62C21.9267 1196.55 17.0825 1196.33 12.1938 1196.32C10.9863 1196.32 10.0723 1196.77 9.42664 1197.44C7.55835 1171.84 7.60474 1146.23 9.37213 1120.63C11.2576 1093.26 15.5964 1066.43 20.136 1039.42C22.3342 1026.32 25.1891 1013.09 24.6343 999.751C24.0795 986.501 18.4 974.15 22.4251 960.859C24.0392 955.531 26.8033 950.647 28.5989 945.379C30.5258 939.708 30.3542 934.107 29.4766 928.234C27.6708 916.276 24.6757 904.459 29.4675 892.783C31.585 887.606 35.0159 882.985 36.6694 877.636C38.7274 870.986 38.4448 863.629 38.7878 856.737C39.4839 842.831 39.6655 828.834 40.8165 814.959C41.33 808.743 42.4498 802.849 45.002 797.148C47.4544 791.658 51.0952 786.663 52.7194 780.84C54.3335 775.108 54.4747 769.064 55.3423 763.2C56.2502 757.004 57.6726 750.899 59.5894 744.945C66.994 721.897 80.5623 701.189 96.5922 683.237C113.631 664.154 133.999 649.784 155.617 636.393C166.985 629.351 178.353 622.309 189.713 615.268C189.955 616.589 190.797 617.803 192.414 618.344C196.681 619.768 201.235 621.123 204.579 624.28C208.356 627.847 214.071 622.146 210.286 618.573C206.338 614.843 201.376 612.88 196.326 611.156C201.502 607.892 206.733 604.512 212.574 602.627C217.69 600.972 225.235 602.415 229.382 598.661C232.639 595.705 233.669 590.225 234.919 586.209C236.483 581.224 237.835 575.966 239.822 571.122C241.174 567.812 243.141 564.633 245.623 562.07C246.712 557.872 248.711 554.038 252.241 551.706C261.481 545.591 272.83 551.666 276.896 560.385C280.255 560.375 283.796 561.112 287.064 561.313C293.783 561.737 300.512 561.929 307.24 561.909C320.405 561.868 333.58 561.011 346.634 559.265C369.978 556.137 392.625 549.83 415.576 544.915C415.707 544.612 415.858 544.31 416.04 544.007C420.983 535.712 433.3 537.114 441.059 540.253C444.387 541.595 447.777 543.29 449.683 546.439C451.701 547.801 453.446 549.456 454.606 551.202C457.007 554.805 458.863 562.07 463.736 562.676C466.944 563.069 470.202 562.454 473.461 562.918C477.536 563.483 481.188 564.916 484.951 566.551C513.601 578.993 543.219 592.829 574.312 597.652C581.604 598.783 589.029 599.953 595.365 604.04C600.509 607.36 604.485 611.921 608.731 616.251C612.867 620.469 616.277 622.336 622.178 623.093C629.341 624.011 635.545 625.989 640.781 631.196C645.129 635.525 647.963 641.055 651.373 646.081C654.845 651.207 659.938 654.093 665.224 657.07C677.723 664.114 689.365 672.621 699.503 682.823C720.86 704.338 733.792 731.988 746.826 758.932C760.919 788.076 774.094 817.573 783.234 848.694C792.192 879.251 797.518 910.685 799.98 942.412C802.573 975.704 802.936 1009.13 805.095 1042.44C806.174 1059.08 806.991 1075.74 807.818 1092.39C808.625 1108.84 809.806 1125.32 809.615 1141.79C809.251 1173.62 802.886 1205.56 791.758 1235.37C788.984 1242.79 785.908 1250.11 782.63 1257.31C779.753 1263.64 769.918 1262.93 766.831 1257.31C766.125 1256.02 765.57 1254.69 765.106 1253.34C757.035 1253.41 748.884 1252.78 740.864 1253.53C726.701 1254.85 712.508 1255.59 698.304 1256.46C670.197 1258.21 642.042 1259.37 613.926 1260.98C611.199 1261.13 608.471 1261.29 605.744 1261.45C625.78 1199.42 623.181 1132.35 626.352 1067.83C626.607 1062.63 618.535 1062.66 618.281 1067.83C615.098 1132.63 617.808 1199.86 597.064 1262C589.016 1262.54 580.979 1263.21 572.969 1264.18C566.494 1264.96 559.986 1265.88 553.449 1265.56C546.034 1265.2 538.791 1263.51 531.558 1262.03C518.413 1259.36 505.753 1260.57 492.557 1262.22C478.444 1263.98 464.281 1264.96 450.077 1265.58C393.2 1268.07 335.941 1270.34 279.085 1266.54C265.325 1265.62 251.595 1264.33 237.926 1262.57C223.843 1260.76 209.911 1257.73 195.839 1256C181.968 1254.3 169.216 1258.96 155.506 1259.81C141.525 1260.69 127.169 1257.78 113.318 1256.1C108.8 1255.55 104.276 1255.02 99.7518 1254.49C105.577 1214.56 108.888 1174.32 112.106 1134.1C112.52 1128.91 104.447 1128.95 104.035 1134.1C100.844 1174 97.6061 1213.94 91.7903 1253.56C67.806 1250.77 43.7986 1247.95 20.0645 1243.6C13.3055 1242.37 6.58685 1240.36 2.54156 1234.32C-0.453552 1229.85 -1.05981 1224.37 0.383728 1219.23Z" fill="black"/>
<path fill-rule="evenodd" clip-rule="evenodd" d="M182.49 372.423C184.657 353.335 181.852 313.438 181.664 311.014C180.476 295.691 187.639 235.18 201.179 240.755C223.891 222.731 254.143 218.751 282.43 216.85C341.187 212.9 403.694 221.967 449.065 261.606C471.503 282.191 493.347 312.131 491.591 343.305C511.977 372.855 540.717 413.389 515.317 447.934C506.683 458.971 492.961 463.081 482.114 471.44C460.298 489.08 446.611 514.395 424.587 531.929C366.24 584.488 267.166 595.467 209.84 535.686C165.511 492.391 172.679 427.618 180.476 372.423C185.718 335.315 178.262 409.661 182.49 372.423Z" fill="#EDB98A"/>
<path fill-rule="evenodd" clip-rule="evenodd" d="M360.922 135.905C345.208 132.726 329.072 130.748 313.024 131.343L311.787 131.392C299.713 131.875 284.422 132.945 273.889 139.984C273.283 139.374 272.308 139.061 271.424 139.484C258.907 145.473 245.14 149.804 231.961 154.106C218.842 158.388 205.231 161.215 191.481 162.354C186.308 162.783 181.881 168.383 185.156 173.405C185.936 174.602 186.695 175.811 187.451 177.023C186.186 176.891 184.922 176.754 183.657 176.626C179.497 176.206 175.34 180.658 175.587 184.719C175.741 187.273 176.016 189.796 176.422 192.29C174.838 192.257 173.262 192.495 171.74 193.14C164.033 196.402 164.57 205.605 165.147 212.606C165.946 222.322 169.571 232.613 176.302 239.885C171.276 245.117 167.719 251.366 165.597 258.787C164.057 264.206 163.201 269.978 163.624 275.619L163.758 277.308C164.281 283.43 165.321 290.207 169.714 294.611C171.969 296.882 174.747 297.709 177.396 297.447C175.794 311.554 174.767 325.743 173.801 339.881L173.348 346.638C171.192 379.314 169.572 412.202 169.996 444.931C170.389 475.518 176.418 505.207 195.133 530.042C212.177 552.656 236.648 569.327 264.331 575.665C279.25 579.085 294.481 579.328 309.581 577.148C316.901 576.088 324.269 574.464 331.216 571.9C338.906 569.055 344.432 564.867 349.607 558.59C352.054 555.613 350.876 549.276 346.003 549.871C338.633 550.767 331.904 551.847 324.839 554.032L323.827 554.352C316.789 556.612 309.501 558.297 302.143 559.014C287.072 560.477 271.772 559.004 257.335 554.422C233.829 546.955 213.585 530.314 200.609 509.405C185.207 484.621 183.465 456.486 183.688 427.988C183.926 396.717 184.941 365.427 186.597 334.188L186.879 328.982C187.755 312.907 188.6 296.821 189.344 280.735C189.576 275.69 189.928 270.604 190.563 265.568C196.371 262.157 201.575 257.455 204.968 251.652C211.783 254.478 218.95 256.516 225.545 258.141C240.82 261.907 256.68 262.821 272.228 260.463C276.421 262.2 280.699 263.727 285.042 265.04C286.215 265.562 287.389 266.075 288.562 266.577C299.032 271.068 309.653 274.872 320.705 277.658L323.42 278.336C329.237 279.774 335.554 281.189 341.745 281.634C342.761 282.027 343.859 282.36 345.058 282.653C350.694 284.025 356.544 284.459 362.321 283.975C367.949 283.5 372.016 277.799 368.916 272.461C366.651 268.565 364.365 264.68 362.059 260.805C370.082 264.155 378.367 266.941 386.723 269.302C395.159 271.684 403.715 273.692 412.283 275.538C416.864 276.517 421.463 277.385 426.033 278.364C429.305 279.06 434.328 279.424 436.997 281.583C439.946 283.955 440.781 289.485 441.9 292.895C443.369 297.326 444.748 301.776 446.007 306.277C448.512 315.258 450.566 324.37 452.157 333.574C453.747 342.787 454.815 352.091 455.409 361.426C456.002 370.75 455.741 380.135 456.697 389.419C457.211 394.344 462.485 396.876 466.381 393.435C466.838 393.032 467.299 392.624 467.755 392.211L468.435 391.589C471.768 388.561 474.999 385.352 477.666 381.74C478.149 381.073 478.612 380.377 479.045 379.671C479.115 379.671 479.176 379.651 479.246 379.6L479.986 379.042C488.127 372.968 501.729 365.048 509.668 375.14C512.198 378.355 513.493 382.449 514.568 386.398L516.454 393.466C517.674 398.081 518.822 402.721 519.494 407.442C521.014 418.018 520.249 430.208 512.99 438.685C510.091 442.076 506.094 444.497 501.636 445.133C499.148 445.476 496.692 445.052 494.226 444.74C491.719 444.427 489.304 444.931 486.796 444.689C482.81 444.296 481.068 449.079 482.558 452.086C483.364 453.701 484.311 455.093 485.387 456.274C484.522 457.021 483.696 457.828 482.9 458.676C480.545 459.433 478.432 461.057 476.85 463.207C475.572 464.943 474.908 466.83 474.797 468.818C474.657 469.312 474.536 469.817 474.424 470.331L472.265 473.845C471.79 474.616 471.316 475.377 470.841 476.124C465.345 484.802 459.244 492.149 451.663 499.071C444.365 505.732 436.443 511.696 429.587 518.84L428.779 519.689C422.387 526.441 415.65 534.614 418.151 544.432C418.795 546.955 422.31 548.771 424.604 547.066C431.983 541.576 435.698 532.877 441.959 526.217C448.403 519.355 455.54 513.189 462.002 506.347C468.113 499.889 472.935 492.573 476.568 484.52C478.019 486.124 480.132 487.264 483.062 487.709C488.095 488.465 492.787 485.509 494.981 481.139C496.391 481.765 497.829 482.33 499.28 482.774C506.911 485.115 511.711 476.608 508.832 470.321C507.293 466.951 505.37 464.024 502.984 461.562C510.444 460.533 518.034 456.668 522.937 451.844C535.237 439.724 536.929 421.509 534.16 405.313C532.691 396.725 530.155 388.036 526.862 379.974C526.289 378.571 525.674 377.158 525.001 375.765C525.373 375.755 525.756 375.594 525.997 375.281C528.222 372.233 530.929 369.741 532.581 366.33C534.101 363.202 535.791 360.033 536.99 356.774C539.455 350.103 540.663 342.575 541.469 335.521C543.13 321.081 542.486 306.731 540.281 292.381C536.527 267.94 527.459 244.55 514.099 224.026C514.827 223.643 515.524 223.181 516.173 222.634L516.494 222.353L517.016 221.881C520.828 218.423 520.499 211.941 517.016 208.438L515.916 207.333C514.523 205.946 513.321 204.846 511.071 203.336C510.739 203.113 510.4 202.903 510.056 202.707C511.234 200.526 511.643 197.974 510.823 195.16C507.964 185.355 493.89 185.702 484.97 189.978C475.102 181.149 464.159 173.485 452.299 167.279C424.05 152.505 392.109 142.202 360.922 135.905ZM506.94 394.142C501.665 392.416 494.658 396.039 489.917 398.219C483.907 400.984 478.793 405.071 473.84 409.39C471.374 411.549 470.932 415.081 471.545 418.099C471.606 418.401 471.666 418.714 471.737 419.027C472.391 422.246 475.975 424.779 479.146 424.688C485.78 424.507 488.94 418.765 492.696 413.901C493.138 414.688 493.692 415.414 494.377 415.959L494.84 416.322C496.399 417.512 498.117 418.463 500.176 418.371C501.635 418.3 503.034 417.927 504.323 417.251C507.545 415.545 508.963 411.368 508.088 407.967C507.545 405.827 506.296 404.152 504.665 402.992L505.273 402.575C506.574 401.668 507.76 400.711 508.685 399.299L508.893 398.965H508.813C509.82 397.23 509.164 394.868 506.94 394.142Z" fill="black"/>
<path fill-rule="evenodd" clip-rule="evenodd" d="M257.778 495.695C265.21 497.848 273.187 498.04 280.762 495.817C287.632 493.8 294.687 489.361 299.744 483.487C304.236 478.269 307.145 471.929 307.031 465.16C307.018 464.387 306.742 463.742 306.317 463.241C305.859 462.702 305.22 462.332 304.535 462.171C303.831 462.006 303.087 462.064 302.453 462.352C301.879 462.613 301.388 463.056 301.08 463.703C300.303 464.724 299.529 465.731 298.752 466.709C292.503 474.427 286.452 480.195 277.056 482.264C271.958 483.386 266.867 482.888 262.195 481.176C257.194 479.342 252.674 476.118 249.131 471.993C247.531 470.128 245.641 469.367 243.792 469.354C241.698 469.34 239.628 470.313 238.069 471.869C236.536 473.399 235.509 475.477 235.416 477.651C235.335 479.559 235.957 481.552 237.612 483.331C243.065 489.188 250.132 493.479 257.778 495.695ZM258.008 399.028C250.39 403.66 238.783 414.461 246.978 425.944C256.624 436.069 270.513 424.46 277.357 419.21C283.703 415.141 290.833 425.606 284.945 430.357C235.49 466.984 215.42 400.239 254.155 393.582C258.42 392.848 260.004 397.595 258.008 399.028ZM329.269 378.647C331.717 377.08 334.597 376.543 337.79 377.995C340.284 379.13 344.659 382.913 347.704 387.885C349.787 391.287 351.264 395.278 350.956 399.436C350.885 400.401 351.241 401.113 351.804 401.639C352.248 402.055 352.89 402.36 353.644 402.456C354.283 402.537 355 402.464 355.582 402.282C356.69 401.936 357.276 401.217 357.497 400.63C359.629 394.967 358.711 388.647 356.321 382.945C353.097 375.25 347.241 368.805 343.405 366.727C336.84 363.17 329.095 363.006 322.521 366.63C316.925 369.714 313.425 374.694 309.945 379.77C309.205 380.849 308.471 381.92 307.712 382.972C306.191 385.081 306.04 387.172 306.629 388.965C307.281 390.952 308.945 392.628 311.025 393.506C312.948 394.317 315.18 394.431 317.155 393.598C318.823 392.894 320.354 391.522 321.323 389.194C322.955 385.273 325.673 380.947 329.269 378.647ZM204.918 387.37C206.595 388.244 207.907 388.507 209.767 387.95C210.795 387.641 211.812 387.048 212.608 386.252C213.397 385.463 213.966 384.482 214.187 383.393C214.731 380.707 216.201 378.192 218.295 376.552C220.085 375.151 222.344 374.408 224.85 374.827C227.554 375.279 230.13 377.014 231.904 379.059C232.497 379.743 232.962 380.52 233.43 381.293C234.304 382.736 235.154 384.078 236.359 385.139C236.816 385.542 237.505 385.821 238.172 385.821C238.443 385.821 238.718 385.777 238.98 385.695C241.672 382.993 242.189 380.943 242.103 378.91C242.012 376.778 241.171 374.619 239.813 372.605C236.628 367.881 230.58 364.007 226.499 363.129C220.909 361.928 215.359 363.37 210.908 366.493C206.329 369.706 202.936 374.695 201.878 380.317C201.624 381.671 201.732 383.132 202.247 384.399C202.751 385.638 203.629 386.698 204.918 387.37ZM316.942 328.273C320.296 331.542 324.266 332.049 328.283 332.499C330.514 332.752 332.296 332.955 334.049 333.351C338.867 334.439 343.63 336.078 347.975 338.438C352.517 340.905 357.468 343.88 361.029 347.692C361.876 348.599 362.674 349.55 363.473 350.504C364.202 351.374 364.904 352.211 365.644 353.019C366.494 353.946 367.301 354.918 368.104 355.887C368.6 356.705 368.698 356.906 368.798 357.116C368.949 357.431 369.124 357.783 369.324 358.161C369.597 358.678 369.918 359.244 370.254 359.758C370.812 360.697 371.112 360.955 371.371 361.071C371.801 361.262 372.208 361.357 372.604 361.305C372.975 361.258 373.324 361.079 373.669 360.788C375.391 359.332 375.899 356.944 375.847 354.408C375.768 350.561 374.349 346.301 373.041 343.682C370 337.597 365.783 331.272 360.712 326.73C354.925 321.547 348.595 317.622 341.323 314.918C336.805 313.237 331.573 311.694 326.65 311.889C323.106 312.029 319.723 313.083 316.929 315.714C315.214 317.329 314.391 319.627 314.391 321.923C314.391 324.265 315.246 326.62 316.942 328.273ZM198.096 358.209C198.31 358.559 198.605 358.8 198.933 358.945C199.278 359.096 199.662 359.14 200.031 359.078C200.398 359.016 200.748 358.849 201.025 358.595C201.29 358.351 201.492 358.027 201.583 357.631C203.81 347.847 208.134 340.567 217.363 335.873C221.903 333.564 227.124 332.097 232.066 330.927C233.502 330.587 235.02 330.366 236.548 330.143C241.338 329.444 246.162 328.642 249.284 324.77C251.166 322.437 251.955 319.453 251.509 316.725C251.089 314.156 249.588 311.8 246.86 310.389C240.068 306.876 231.628 310.323 224.769 313.259C224.261 313.477 223.761 313.691 223.272 313.897C216.565 316.729 210.448 320.467 205.42 325.813C201.43 330.055 197.733 336.325 196.244 342.775C195.006 348.141 195.297 353.619 198.096 358.209Z" fill="black"/>
<path fill-rule="evenodd" clip-rule="evenodd" d="M236.641 511.994C246.036 503.621 256.567 486.788 270.064 500.107C273.402 503.87 274.754 512.306 279.859 513.961C286.638 516.161 293.356 508.986 295.666 503.476C305.119 472.862 266.044 464.465 243.784 469.411C232.909 473.879 224.899 491.861 224.415 501.246C224.102 507.553 229.439 516.827 236.641 511.994ZM165.763 464.807C165.855 464.4 165.983 464.033 166.137 463.698C170.292 462.127 173.58 463.73 175.612 466.723C175.545 467.467 175.323 468.22 175.183 468.958C176.751 472.262 178.165 476.35 180.29 479.205C180.709 479.237 181.144 479.193 181.562 479.072C216.782 482.751 199.587 445.888 235.31 436.732C262.924 432.175 312.833 437.395 325.86 466.147C336.134 512.07 388.372 480.071 405.524 456.188C423.825 434.452 435.658 407.891 447.068 382.118C449.479 376.664 457.003 380.564 456.185 385.797C466.731 406.96 466.38 432.38 468.992 455.564C473.435 501.817 477.763 566.682 434.802 594.925C378.826 658.215 239.048 680.549 174.487 622.397C152.138 574.332 154.893 515.694 165.763 464.807Z" fill="black"/>
<path fill-rule="evenodd" clip-rule="evenodd" d="M202.529 323.982C178.851 323.982 165.338 329.075 160.386 329.472L160.237 329.483C158.178 329.615 156.33 329.787 154.392 330.537C147.264 333.283 146.103 340.761 150.263 345.474C150.554 355.226 149.272 366.62 151.472 376.404C154.186 417.648 173.576 424.608 184.598 427.148C190.131 428.424 196.69 428.932 202.568 427.585C212.595 427.211 222.508 424.071 230.99 418.603C242.802 410.982 251.575 399.269 254.422 385.367C255.772 378.741 256.402 371.844 255.668 365.108L255.559 364.18C259.399 362.343 263.848 361.996 268.434 361.833C270.625 361.755 272.785 361.685 274.883 361.779C276.933 362.008 278.96 362.313 280.992 362.728C283.211 363.398 285.307 364.503 287.242 366.254L287.375 368.81C287.739 375.194 288.577 381.597 289.869 387.86C291.777 397.101 294.846 405.927 301.379 412.482C303.59 415.785 306.326 418.734 309.647 421.288C321.713 430.58 338.106 433.992 353.15 432.707C383.694 430.1 401.348 405.846 405.417 395.479L405.66 394.851C408.599 387.144 410.942 377.144 420.229 375.488L422.204 375.133C426.442 374.337 430.353 373.229 432.838 369.093C433.927 367.287 434.487 365.267 434.625 363.208C436.074 363.32 437.522 363.426 438.965 363.53C450.474 365.964 519.504 368.029 525.014 368.029C525.014 368.029 535.605 372.488 540.077 369.033C543.176 366.63 544.196 363.428 542.49 359.801C539.915 354.343 528.038 351.06 522.764 350.02C522.764 350.02 437.657 350.727 431.531 349.565C427.741 345.656 420.962 346.191 415.297 345.573C410.607 342.228 404.047 339.988 398.865 338.488C397.809 338.088 396.763 337.701 395.746 337.336C386.246 333.952 376.371 332.159 366.346 331.196C356.008 330.214 345.639 330.658 335.361 332.067C331.03 332.655 326.74 333.415 322.479 334.409C314.85 335.415 307.266 337.072 299.634 339.037L298.107 339.435C290.071 341.542 281.813 343.365 273.494 341.936C266.721 340.781 260.208 338.173 253.963 335.354L253.15 334.985C239.42 328.714 217.977 323.982 202.529 323.982ZM323.305 346.912C328.371 345.797 330.535 353.611 325.452 354.728C321.853 355.52 318.803 357.335 316.742 360.411L316.525 360.745C313.76 365.147 306.768 361.084 309.552 356.653C312.685 351.668 317.553 348.176 323.305 346.912ZM174.924 342.067C176.71 340.809 179.413 341.743 180.449 343.521C181.591 345.479 180.843 347.66 179.17 348.941L179 349.066C177.465 350.148 175.971 352.087 175.784 354.073L175.767 354.322C175.566 359.521 167.488 359.547 167.69 354.322C167.887 349.21 170.846 344.939 174.924 342.067Z" fill="black"/>
<path fill-rule="evenodd" clip-rule="evenodd" d="M1334.65 759.198C1325.86 725.089 1317.77 710.627 1302.15 698.772C1287.54 687.683 1266.21 678.37 1235.1 671.567C1202.68 665.899 1201.76 649.051 1193.64 621.972C1191.27 613.831 1179.52 611.665 1174.45 617.533C1173.73 616.761 1172.99 616.054 1172.21 615.415C1172.91 611.533 1167.25 600.405 1167.44 596.691C1169.41 557.928 1156.74 538.462 1125.09 531.226C1118.21 529.652 1071.47 528.725 1064.76 530.58C1035.43 538.691 1006.56 564.443 1010.98 595.464C1001.77 607.499 992.757 614.844 978.552 618.721C956.431 621.53 967.543 934.967 1005.96 1122.75C1022.45 1203.32 1416.6 1066.19 1398.79 1025.83C1401.31 1018.44 1396.71 1010.31 1398.79 1002.67C1400.29 997.142 1404.14 994.856 1406.08 989.383C1408.8 981.68 1405.84 971.347 1402.77 963.487C1401.51 959.57 1405.08 955.354 1406.08 951.356C1410.79 932.503 1400 934.165 1392.23 921.561C1392.34 921.522 1394.36 912.524 1394.35 912.569C1395.54 906.145 1392.56 897.915 1389.96 892.553C1388.2 888.928 1384.44 886.66 1380.69 887.076C1384.46 874.279 1389.23 863.631 1394.35 851.302C1403.42 829.57 1412.04 806.835 1425.06 787.164C1430.39 779.109 1426.08 771.701 1417.46 771.152C1389.53 769.378 1361.92 765.357 1334.65 759.198Z" fill="#AE5D29"/>
<path fill-rule="evenodd" clip-rule="evenodd" d="M1291.06 761.833L1227.33 869.718C1227.33 869.718 1242.45 871.227 1248.57 874.167C1254.69 877.108 1282.78 912.832 1282.78 912.832L1287.25 932.503L1276.67 948.363L1280.79 958.321C1280.79 958.321 1283.74 951.574 1291.06 946.337C1298.39 941.1 1314.55 932.503 1314.55 932.503C1314.55 932.503 1309.18 929.629 1309.18 926.256C1309.18 922.882 1304.45 908.49 1314.55 903.053C1324.65 897.617 1376.85 884.893 1376.85 884.893L1429.74 773.292L1291.06 761.833Z" fill="#6D2121"/>
<path fill-rule="evenodd" clip-rule="evenodd" d="M1006.74 619.453L1209.12 654.98L1302.15 698.772L1317.34 710.474L1227.33 869.718L1088.34 895.081L1052.94 987.072L1060.16 1090.77L1286.26 1063.8L1383.79 1052.21L1406.72 1144.79L1402.58 1182.87L1396.55 1202.18L1154.77 1267.47C1154.77 1267.47 1031.65 1255.54 1009.83 1255.54C988.005 1255.54 827.99 1271.43 827.99 1271.43L790.967 1267.47C790.967 1267.47 709.054 1181.12 696.349 1150.39C683.645 1119.66 656.172 932.84 656.172 932.84L659.197 904.136L729.968 721.971C729.968 721.971 739.419 713.387 751.333 698.772C763.248 684.157 1006.74 619.453 1006.74 619.453Z" fill="#216E6E"/>
<path fill-rule="evenodd" clip-rule="evenodd" d="M1373.03 882.593C1354.74 883.523 1336.43 887.872 1319.89 895.752C1313.12 898.982 1306.98 903.644 1305.19 911.313C1304.28 915.23 1304.5 919.276 1304.98 923.232C1305.35 926.228 1305.44 930.053 1308.04 932.081C1308.49 932.424 1308.96 932.687 1309.45 932.878C1303.35 935.633 1297.54 938.944 1292.37 942.354C1287.65 945.472 1282.8 950.276 1280.62 955.695C1280.44 955.079 1280.26 954.505 1280.08 953.959C1276.37 942.981 1270.65 933.989 1261.64 927.944C1260.61 924.215 1249.64 908.165 1239.44 908.771C1228.27 909.427 1219.29 910.243 1209.19 915.38C1205.51 915.299 1201.83 915.35 1198.2 915.511C1197.58 915.531 1197.61 916.38 1198.2 916.45C1201.15 916.824 1204.1 917.237 1207.04 917.721C1214.04 918.842 1221.02 920.264 1227.85 922.03C1236.04 924.15 1244.52 926.279 1252.17 929.982C1267.02 937.178 1276.21 955.988 1274.33 972.356C1274.02 975.04 1272.98 983.153 1269.25 982.316C1266.11 981.609 1264.86 975.04 1263.76 972.608C1260.81 966.149 1255.5 961.931 1249.14 959.075C1241.66 955.715 1233.66 953.444 1225.91 950.802C1221.53 949.298 1217.14 947.793 1212.74 946.3C1208.24 944.757 1203.96 942.627 1199.17 943.706C1196.28 944.362 1195.94 947.813 1197.57 949.792C1200.04 952.809 1203.71 953.697 1207.27 954.938C1211.97 956.573 1216.66 958.209 1221.36 959.842C1228.61 962.365 1236.21 964.494 1243.28 967.582L1243.06 968.087C1242.48 967.925 1241.8 968.501 1241.92 969.207C1242.97 975.736 1244.45 983.285 1242.81 989.825C1241.52 995.011 1236.97 1000.75 1231.06 999.229C1231.99 998.381 1232.33 996.918 1231.71 995.566C1229.36 990.56 1198.7 970.802 1195.96 978.139C1195.87 978.4 1196.15 978.592 1196.38 978.553C1198.71 978.067 1202.61 982.043 1204.48 983.305C1207.17 985.122 1209.9 986.897 1212.57 988.764C1215.48 990.804 1218.33 992.943 1221.1 995.152C1223.28 996.889 1224.93 998.694 1227.43 999.573C1226.12 1000.2 1225.08 1001.36 1224.63 1002.84C1223.5 1006.71 1221.33 1009.99 1217.54 1011.69C1213.58 1013.47 1209.11 1012.35 1204.93 1012.78C1199.24 1013.36 1194.28 1016.06 1190.13 1019.93C1181.43 1028.06 1177.06 1042.39 1164.88 1046.23C1157.61 1048.53 1149.54 1047.08 1142.17 1046.04C1133.95 1044.88 1125.94 1043.96 1117.66 1045.17C1109.73 1046.34 1102.24 1049.08 1094.99 1052.43C1088.2 1055.57 1080.7 1059.12 1074.68 1063.8C1073.43 1059.98 1072.18 1056.19 1071.23 1052.29C1069 1043.06 1067.79 1033.65 1067.49 1024.16C1067.22 1015.13 1067.73 1006.06 1068.5 997.069C1068.89 992.579 1069.49 988.108 1069.87 983.618C1069.97 982.487 1070.18 981.276 1070.33 980.066C1081.08 973.718 1092.38 968.855 1103.77 963.85C1103.8 963.84 1103.83 963.818 1103.86 963.809C1104.21 963.647 1104.56 963.496 1104.91 963.345C1104.9 963.324 1104.89 963.305 1104.87 963.284C1106.17 962.487 1107.08 961.427 1107.62 960.236C1124.04 949.347 1137.76 934.484 1147.99 917.146C1152.27 909.88 1156.4 902.342 1162.01 895.975C1167.98 889.183 1175.07 885.146 1183.85 883.047C1194.11 880.586 1204.68 879.112 1215.19 878.274C1220.93 877.821 1227.35 877.114 1233.6 877.145C1237.96 877.174 1242.23 877.548 1246.14 878.627C1251.94 880.222 1255.33 884.633 1258.97 889.092C1262.45 893.372 1265.91 897.661 1269.16 902.121C1272.24 906.348 1275.15 910.718 1277.67 915.299C1279.18 918.044 1280.58 920.871 1281.76 923.786C1282.18 924.816 1282.72 925.986 1282.97 927.056C1283.23 928.135 1282.76 929.277 1283.97 929.277C1278.98 929.346 1275.66 941.802 1280.62 941.509C1287.6 941.103 1291.11 932.735 1289.74 925.31C1287.3 912.063 1274.13 896.064 1271.52 892.674C1265.76 885.187 1259.82 875.418 1250.6 871.937C1250.47 871.886 1250.33 871.837 1250.2 871.796C1252.88 869.253 1255 866.206 1257.03 863.107C1259.12 859.918 1261.61 856.265 1262.29 852.481C1262.73 850.07 1259.73 848.696 1258.31 850.806C1256.24 853.883 1255.24 857.779 1253.7 861.16C1252.12 864.59 1250.21 867.83 1248.69 871.291C1245.05 870.171 1241.12 869.657 1237.11 869.486C1242.17 862.644 1250.8 849.443 1251.84 847.748C1256.62 839.897 1261.17 831.805 1265.52 823.7C1270.22 814.921 1274.25 805.778 1278.75 796.898C1281.3 791.863 1283.87 786.786 1286.71 781.902C1287.68 780.227 1288.73 778.552 1289.92 777.028C1290.16 776.726 1290.45 776.474 1290.72 776.19C1291.03 776.019 1291.36 775.827 1291.54 775.727C1293.17 774.789 1293.75 772.609 1294.9 771.225C1296.73 768.996 1298.89 768.734 1301.66 768.703C1307.55 768.642 1313.46 768.874 1319.34 769.036C1327.99 769.278 1336.62 769.621 1345.26 770.075C1347.87 770.216 1350.47 770.358 1353.09 770.519C1365.64 771.267 1378.19 772.245 1390.71 773.446C1401.79 774.505 1412.87 776.232 1423.95 777.059C1408.94 812.732 1392.3 847.759 1373.45 881.565C1373.26 881.907 1373.12 882.25 1373.03 882.593ZM1289.74 974.495C1287.32 975.606 1284.97 976.987 1282.78 978.563C1283.14 976.111 1283.24 973.526 1283.13 970.933C1284.94 972.87 1287.25 973.98 1289.74 974.495ZM1393.09 913.131C1392.92 913.15 1392.76 913.241 1392.68 913.412C1389.33 920.325 1390.73 928.045 1396.2 933.464C1399.07 936.289 1405.31 939.478 1405.11 944.12C1404.94 947.874 1400.85 951.023 1399.11 954.121C1397.48 957.007 1396.88 960.175 1398.18 963.305C1399.84 967.31 1404.49 968.904 1406.09 972.841C1408.11 977.835 1404.83 983.861 1402.53 988.209C1400.39 992.235 1397.62 996.262 1395.79 1000.52C1383.49 1006.89 1355.59 1018.45 1352.23 1019.1C1348.13 1019.9 1344.03 1020.65 1339.91 1021.36C1332.01 1022.73 1324.09 1024 1316.15 1025.12C1311.63 1025.76 1307.1 1026.38 1302.57 1026.88C1298.62 1027.3 1294.16 1027.88 1290.97 1024.9C1284.55 1018.89 1288.15 1008.81 1292.21 1002.73C1292.29 1002.61 1292.29 1002.5 1292.26 1002.4C1296.1 1001.5 1299.92 1000.45 1303.73 999.713C1311.07 998.3 1318.45 997.111 1325.85 996.051C1341.04 993.88 1356.33 992.447 1371.61 991.005C1375.39 990.641 1375.43 984.688 1371.61 985.041C1349.66 987.05 1327.61 988.956 1305.96 993.185C1300.54 994.234 1295.15 995.424 1289.79 996.766C1287.26 997.393 1284.55 998.372 1281.89 998.402C1281.73 998.402 1281.57 998.402 1281.41 998.391C1276.21 998.231 1275.46 993.78 1278.31 990.077C1278.67 989.622 1279.03 989.168 1279.4 988.735C1284.45 982.719 1290.73 978.703 1297.21 974.545C1304.46 973.556 1311.69 971.357 1318.8 969.742C1336.33 965.746 1353.86 961.75 1371.41 957.764C1374.84 956.976 1373.38 951.689 1369.94 952.466C1356.63 955.484 1343.31 958.5 1329.99 961.517L1310.5 965.938C1306.61 966.815 1301.75 968.581 1297.17 969.218C1294.91 969.53 1292.72 969.57 1290.74 969.107C1284.36 967.593 1284.03 959.61 1286.79 954.867C1289.87 949.54 1295.7 946.209 1300.88 943.192C1309.85 937.954 1319.39 934.19 1328.71 929.851C1330.37 929.488 1332.02 929.124 1333.68 928.761C1343.3 926.642 1354.3 925.602 1363.35 921.718C1366.07 920.567 1364.58 916.288 1361.9 916.349C1354.87 916.501 1347.52 919.003 1340.65 920.486C1333.21 922.101 1325.77 923.705 1318.33 925.31C1317.59 925.471 1313.17 926.884 1312.5 926.571C1312.08 926.369 1311.93 924.897 1311.78 923.927C1311.33 920.738 1311 917.389 1311.49 914.189C1312.58 907.014 1318.56 903.644 1324.62 900.889C1338.09 894.763 1352.87 890.93 1367.58 889.395C1370.97 889.042 1374.36 888.821 1377.77 888.709C1381.77 888.587 1385.07 887.881 1387.1 891.827C1390.29 898.043 1392.05 906.036 1393.09 913.131ZM1374.38 1138.51C1371.44 1128.35 1372.24 1117.51 1370.23 1107.14C1369.19 1101.8 1367.77 1096.49 1366.22 1091.27C1364.98 1087.06 1362.89 1082.57 1362.66 1078.17C1362.64 1077.88 1362.99 1077.71 1363.23 1077.85C1367.37 1080.22 1370.55 1085.35 1372.91 1089.38C1375.74 1094.2 1377.9 1099.24 1379.64 1104.55C1383.12 1115.11 1385.97 1127.86 1381.49 1138.51C1380.16 1141.68 1375.48 1142.32 1374.38 1138.51ZM1259.77 1215.43C1255.39 1212.37 1252.2 1208.1 1248.49 1204.33C1244.84 1200.63 1250.55 1194.92 1254.2 1198.62C1257.37 1201.84 1260.11 1205.85 1263.84 1208.46C1265.63 1209.71 1266.47 1211.97 1265.29 1213.98C1264.25 1215.75 1261.56 1216.67 1259.77 1215.43ZM1235.36 1098.02C1243.35 1094.56 1251.21 1090.8 1259.57 1088.31C1264.57 1086.82 1266.68 1094.62 1261.72 1096.09C1254.02 1098.39 1246.79 1101.81 1239.44 1104.99C1234.71 1107.03 1230.61 1100.07 1235.36 1098.02ZM1151 1095.6C1149.04 1090.78 1156.85 1088.7 1158.78 1093.45C1161 1098.93 1163.54 1104.26 1165.75 1109.73C1167.7 1114.55 1159.9 1116.63 1157.97 1111.87C1155.75 1106.4 1153.21 1101.07 1151 1095.6ZM1067.73 1191.89C1066.42 1193.63 1064.25 1194.57 1062.2 1193.34C1060.49 1192.31 1059.44 1189.57 1060.76 1187.82C1064.6 1182.69 1068.5 1177.62 1073.01 1173.05C1076.66 1169.34 1082.37 1175.05 1078.72 1178.76C1074.69 1182.84 1071.16 1187.31 1067.73 1191.89ZM1055.82 651.609C1059.52 654.14 1062.77 657.215 1065.93 660.378C1069.61 664.057 1063.9 669.764 1060.23 666.086C1057.56 663.42 1054.87 660.713 1051.75 658.58C1049.94 657.347 1049.13 655.053 1050.3 653.057C1051.34 651.269 1054.02 650.38 1055.82 651.609ZM1176.97 781.522C1174.87 785.717 1172.99 789.829 1172.87 794.597C1172.74 799.791 1164.67 799.794 1164.8 794.597C1164.95 788.357 1167.25 782.946 1170 777.447C1172.32 772.792 1179.28 776.886 1176.97 781.522ZM1221.42 677.184C1225.76 674.291 1229.79 681.287 1225.49 684.155C1222.01 686.479 1218.52 688.805 1215.03 691.131C1210.69 694.023 1206.66 687.027 1210.96 684.159C1214.44 681.834 1217.93 679.509 1221.42 677.184ZM1028.62 859.608C1027.88 864.739 1020.1 862.544 1020.84 857.463C1021.97 849.61 1023.36 841.861 1025.49 834.211C1026.88 829.206 1034.66 831.345 1033.27 836.358C1031.14 844.007 1029.75 851.756 1028.62 859.608ZM1000.32 952.085C995.13 951.975 995.129 943.902 1000.32 944.012C1005.02 944.112 1009.65 945.349 1014.18 946.481C1019.22 947.742 1017.07 955.525 1012.04 954.266C1008.2 953.308 1004.3 952.17 1000.32 952.085ZM989.879 1138.37C988.094 1139.24 986.263 1140.02 984.46 1140.85C980.847 1142.5 977.237 1144.15 973.627 1145.81C966.107 1149.26 958.592 1152.73 951.083 1156.21C936.052 1163.17 920.905 1169.88 905.837 1176.76C890.472 1183.79 875.148 1190.9 859.842 1198.05C852.631 1201.42 845.366 1204.66 838.115 1207.94C831.914 1210.75 824.251 1215.65 817.444 1216.11C817.094 1216.13 816.977 1215.69 817.177 1215.46C819.748 1212.54 823.85 1210.84 827.23 1208.93C830.682 1206.99 834.198 1205.16 837.699 1203.31C844.997 1199.44 852.303 1195.61 859.672 1191.87C874.41 1184.41 889.177 1177.01 903.947 1169.61C919.01 1162.06 934.055 1154.47 949.25 1147.19C956.405 1143.76 963.566 1140.35 970.732 1136.94C974.614 1135.1 978.498 1133.25 982.381 1131.42C984.059 1130.62 985.72 1129.77 987.435 1129.05C989.713 1128.11 991.446 1128.3 993.796 1127.72C997.629 1126.78 999.289 1131.65 996.346 1133.78C993.923 1135.52 992.648 1137.02 989.879 1138.37ZM936.002 1221.15C935.173 1219.14 936.908 1216.69 938.82 1216.19C941.111 1215.58 942.948 1216.97 943.785 1219C945.997 1224.39 949.148 1229.33 953.205 1233.5C956.83 1237.23 951.127 1242.94 947.498 1239.21C942.415 1233.98 938.763 1227.87 936.002 1221.15ZM896.365 1091.57C892.686 1087.89 898.394 1082.18 902.072 1085.86L912.531 1096.32C916.21 1100 910.501 1105.71 906.824 1102.03L896.365 1091.57ZM789.058 1074.51C781.539 1076.72 772.768 1078.74 767.642 1085.16C767.391 1085.48 766.971 1085.07 767.121 1084.76C773.684 1071.15 792.507 1066.37 805.538 1061.61C814.756 1058.23 824.213 1055.44 833.75 1052.94C832.797 1042.05 835.426 1030.39 836.34 1019.56C837.316 1008 838.109 996.403 838.517 984.804C838.934 972.972 839.035 961.06 838.645 949.225C838.258 937.433 836.727 925.786 836.058 914.034C835.993 912.897 837.575 912.843 837.916 913.782C841.876 924.688 843.568 936.768 844.857 948.268C846.185 960.114 846.626 971.926 846.456 983.841C846.281 996.091 845.569 1008.31 844.591 1020.52C844.128 1026.31 843.59 1032.09 843.083 1037.88C842.695 1042.29 842.516 1046.67 841.616 1050.94C847.368 1049.53 853.134 1048.2 858.881 1046.9C877.207 1042.76 895.609 1038.92 913.858 1034.45C922.817 1032.25 931.647 1029.62 940.564 1027.29C948.962 1025.09 957.825 1022.42 966.446 1021.44C969.523 1021.09 969.915 1025.3 967.878 1026.73C960.871 1031.65 951.564 1035.08 943.471 1037.83C935.348 1040.6 926.904 1042.59 918.579 1044.63C901.216 1048.91 883.689 1052.4 866.188 1056.04C848.712 1059.67 831.202 1063.28 813.922 1067.76C805.601 1069.92 797.307 1072.09 789.058 1074.51ZM747.852 858.532C743.359 861.171 739.302 854.191 743.779 851.561C749.637 848.122 755.881 845.538 762.175 843.017C767.005 841.084 769.083 848.894 764.321 850.803C758.664 853.067 753.116 855.443 747.852 858.532ZM731.582 1158.46C727.077 1161.08 723.017 1154.1 727.509 1151.49C733.818 1147.83 740.728 1145.39 747.266 1142.19C751.917 1139.91 756.003 1146.88 751.338 1149.16C744.801 1152.36 737.891 1154.8 731.582 1158.46ZM724.264 988.208C728.62 992.347 734.434 994.296 739.916 996.471C744.695 998.365 742.599 1006.17 737.77 1004.26C730.94 1001.55 723.984 999.072 718.557 993.916C714.782 990.329 720.499 984.631 724.264 988.208ZM772.456 756.991C777.244 758.87 775.147 766.674 770.31 764.776C764.945 762.671 759.405 761.068 754.04 758.963C749.252 757.084 751.348 749.281 756.186 751.178C761.55 753.283 767.091 754.886 772.456 756.991ZM857.47 665.151C862.559 664.294 864.726 672.074 859.616 672.937C853.277 674.008 847.034 675.26 841.022 677.587C836.167 679.466 834.083 671.657 838.876 669.803C844.89 667.475 851.132 666.222 857.47 665.151ZM885.561 888.758C880.895 886.463 884.989 879.504 889.633 881.788C894.528 884.195 899.599 886.056 904.94 887.193C910.025 888.277 907.859 896.058 902.794 894.978C896.783 893.697 891.065 891.466 885.561 888.758ZM912.091 762.803C917.115 761.427 919.239 769.216 914.237 770.589C905.435 773 896.373 774.255 887.507 776.401C882.453 777.624 880.316 769.838 885.361 768.617C894.227 766.469 903.29 765.217 912.091 762.803ZM1024.64 723.277C1029.75 724.223 1027.57 732.002 1022.49 731.063C1017.09 730.063 1011.61 730.047 1006.13 730.044C1000.93 730.042 1000.94 721.969 1006.13 721.971C1012.36 721.974 1018.5 722.142 1024.64 723.277ZM1391.7 765.454C1378.52 764.193 1365.31 763.184 1352.09 762.427C1351.47 762.395 1350.87 762.356 1350.25 762.325C1350.18 762.185 1350.09 762.052 1350 761.911C1345.68 755.574 1342.5 749.237 1339.75 742.072C1337.12 735.25 1334.56 728.217 1330.51 722.061C1325.88 715.048 1319.64 709.56 1312.79 704.804C1308.64 707.597 1304.79 710.866 1301.27 714.332C1297.56 717.978 1291.85 712.27 1295.56 708.623C1298.69 705.543 1302.03 702.698 1305.57 700.128C1301.49 697.648 1297.32 695.316 1293.26 692.997C1278.04 684.31 1262.45 676.276 1246.55 668.931C1239.15 665.509 1231.67 662.471 1224.13 659.393C1220.07 657.739 1216.07 655.609 1212.01 653.693C1212.31 650.826 1211.45 647.617 1209.25 645.73C1207.63 644.347 1206.36 643.833 1204.43 642.855C1203.99 642.702 1203.73 642.611 1203.61 642.561C1203.7 642.581 1203.96 642.662 1204.4 642.803C1205.43 643.278 1205.51 643.136 1204.64 642.389C1204.59 640.756 1201.37 637.304 1200.63 635.619C1198.07 629.836 1197.28 623.72 1193.49 618.453C1188.28 611.197 1179.52 608.453 1171.36 610.915C1170.51 602.186 1170.29 593.074 1167 585.283C1166.91 585.072 1166.62 584.98 1166.49 585.212C1163.06 591.056 1162.76 597.564 1162.5 604.305C1162.25 610.632 1162.49 617.101 1163.32 623.387C1162.79 623.791 1162.26 624.176 1161.71 624.548C1159.1 626.264 1156.3 627.585 1153.35 628.565C1147.74 630.421 1141.86 631.228 1135.98 631.511C1120.8 632.238 1105.15 630.704 1090.22 628.1C1075.12 625.466 1051.97 621.51 1038.53 613.952C1029.66 608.968 1021.48 602.882 1013.19 596.989C1016.2 587.301 1016.96 576.887 1013.94 568.703C1013.57 567.724 1012.04 567.542 1011.75 568.703C1009.85 576.513 1009.3 584.364 1006.77 592.084C1006.73 592.195 1006.69 592.317 1006.65 592.427C1005.87 591.893 1005.08 591.368 1004.29 590.843C1002.48 589.642 1000 590.541 998.915 592.256C981.492 619.714 953.902 621.288 924.929 626.194C893.221 631.561 861.354 637.354 830.868 647.859C801.714 657.911 773.851 672.543 751.778 694.401C746.782 699.35 742.109 704.623 737.698 710.127C741.966 710.665 746.197 711.503 750.375 712.816C755.321 714.37 753.196 722.161 748.229 720.6C742.86 718.913 737.432 718.078 731.948 717.663C716.95 738.186 705.256 761.458 695.144 784.364C675.748 828.283 663.123 875.054 657.313 922.672C660.503 920.76 663.75 918.938 667.078 917.244C671.702 914.892 675.781 921.859 671.152 924.215C666.011 926.831 661.017 929.714 656.179 932.84C654.066 953.684 653.246 974.661 653.743 995.606C654.923 1045.54 661.662 1096.93 676.905 1144.57C684.38 1167.96 694.286 1191.15 709.045 1210.91C715.724 1219.86 723.31 1227.93 732.248 1234.66C736.576 1237.93 741.155 1240.85 745.988 1243.31C752.212 1246.5 760.323 1247.55 765.69 1252.06C767.455 1253.54 768.817 1255.5 769.846 1257.71C769.251 1261.91 769.18 1266.11 770.33 1270.31C770.693 1271.62 771.682 1272.69 772.902 1273.21C772.923 1273.57 772.923 1273.92 772.923 1274.27C772.923 1274.43 773.165 1274.47 773.195 1274.31C773.245 1274 773.296 1273.68 773.346 1273.36C773.74 1273.49 774.153 1273.55 774.577 1273.55C789.901 1273.61 805.244 1273.24 820.588 1272.72C819.401 1269.08 818.116 1265.48 816.882 1261.84C815.207 1256.9 823.004 1254.8 824.664 1259.69C826.108 1263.94 827.617 1268.16 828.96 1272.42C845.4 1271.81 861.836 1271.08 878.242 1270.54C913.136 1269.37 948.021 1268.99 982.924 1268.25C1037.13 1267.11 1091.73 1264.75 1146.01 1267.05C1147.89 1263.07 1149.99 1259.17 1151.99 1255.24C1154.34 1250.6 1161.3 1254.69 1158.95 1259.32C1157.57 1262.05 1156.13 1264.75 1154.77 1267.47C1165.77 1268.04 1176.75 1268.8 1187.71 1269.83C1206.41 1271.58 1224.94 1274.7 1243.62 1276.64C1262.61 1278.62 1281.2 1278.27 1300.04 1275.13C1303.43 1274.56 1305.43 1272.51 1306.26 1269.97C1306.29 1269.96 1306.31 1269.94 1306.33 1269.91C1307.29 1268.78 1308.2 1267.84 1309.14 1267.02C1310.26 1266.3 1311.47 1265.68 1312.89 1265.14C1315.55 1264.13 1318.31 1263.51 1321.12 1263.1C1324.2 1262.63 1327.33 1262.59 1330.42 1262.21C1333.02 1261.88 1335.56 1261.38 1338.1 1260.78C1342.67 1259.69 1347.01 1258.26 1351.33 1256.38C1355.09 1254.73 1358.49 1252.37 1361.7 1249.8C1368.34 1244.94 1374.09 1238.75 1379.11 1232.31C1382.04 1228.54 1384.79 1224.64 1387.29 1220.57C1391.65 1213.53 1395.36 1206.21 1399.12 1198.84C1400.48 1196.65 1401.72 1194.41 1402.86 1192.13C1395.52 1189.96 1388.12 1188.2 1380.34 1188.08C1375.15 1187.99 1375.15 1179.92 1380.34 1180C1389.26 1180.15 1397.7 1182.23 1406.08 1184.71C1406.48 1183.63 1406.88 1182.53 1407.24 1181.43C1408.24 1179.12 1409.06 1176.75 1409.75 1174.34C1410.15 1173.25 1410.56 1172.16 1410.96 1171.07C1411.87 1167.3 1412.78 1163.52 1413.69 1159.73C1415.52 1153.68 1416.96 1147.53 1418.02 1141.3C1418.91 1137.21 1419.6 1133.08 1420.06 1128.9C1421.47 1118.78 1422.62 1108.68 1422.7 1098.45C1422.58 1092.14 1422.18 1085.84 1421.49 1079.58C1421.2 1075.32 1420.71 1071.08 1420.04 1066.87C1419.17 1060.61 1418.31 1054.42 1416.87 1048.24C1415.79 1044.07 1414.71 1039.89 1413.63 1035.71C1410.94 1027 1407.76 1018.46 1404.1 1010.12C1403.9 1009.59 1402.88 1008.44 1402.26 1008.43C1401.8 1008.42 1401.15 1008.85 1401.37 1009.41C1401.39 1009.46 1401.41 1009.52 1401.43 1009.57C1401.22 1009.1 1401.01 1008.61 1400.8 1008.14C1400.62 1007.7 1399.91 1006.81 1399.37 1006.82C1399.34 1006.82 1399.31 1006.82 1399.27 1006.83C1399.41 1006.73 1399.54 1006.6 1399.67 1006.45C1403.29 1002.16 1405.64 996.514 1408.24 991.549C1410.39 987.452 1412.41 983.133 1413 978.501C1413.51 974.435 1412.82 970.428 1410.26 967.138C1407.36 963.394 1401.89 961.639 1404.93 956.23C1408.38 950.074 1413.45 944.736 1408.4 937.742C1405.83 934.18 1401.75 932.223 1398.72 929.124C1395.24 925.542 1393.59 920.749 1393.68 915.854C1393.89 915.975 1394.17 915.916 1394.27 915.612C1397.2 906.772 1395.08 897.065 1392.09 888.456C1390.45 883.785 1386.99 882.502 1382.97 882.271C1400.4 848.213 1416.71 813.609 1431.25 778.209C1431.73 777.048 1432.21 775.889 1432.68 774.727C1433.39 772.991 1431.89 770.681 1430.17 770.297C1417.6 767.542 1404.5 766.664 1391.7 765.454Z" fill="black"/>
<path fill-rule="evenodd" clip-rule="evenodd" d="M1245.43 343.627C1243.04 312.602 1246.74 280.083 1234.81 250.595C1214.01 201.667 1155.66 185.353 1110.43 166.726C1092.31 161.358 1031.34 160.608 1010.12 153.505C962.103 137.427 950.63 118.271 912.475 148.883C906.034 154.112 902.005 159.796 899.065 167.561L899.186 167.594C898.346 170.832 899.246 174.062 901.138 176.529C884.594 193.481 877.671 218.895 886.159 241.46C913.86 300.18 912.557 331.931 903.632 395.058C891.977 453.991 918.611 475.519 962.719 507.585C960.923 511.076 960.551 515.715 962.892 518.795C1013.9 590.644 1110.07 624.949 1192.47 588.481C1225.91 573.558 1240.85 537.851 1249.37 505.633C1259.29 469.557 1262.34 431.543 1254.26 394.795C1251 377.799 1246.76 360.926 1245.43 343.627Z" fill="#AE5D29"/>
<path fill-rule="evenodd" clip-rule="evenodd" d="M880.11 255.616L910.438 275.869L1019 161.144L982.87 132.641C982.87 132.641 917.329 181.199 904.442 194.014C891.556 206.83 880.11 255.616 880.11 255.616Z" fill="#6D2121"/>
<path fill-rule="evenodd" clip-rule="evenodd" d="M951.221 -0.103597C957.412 -1.03554 962.088 2.81503 964.312 8.24234L964.429 8.53458C965.143 10.3813 965.939 12.1775 966.794 13.9435C982.287 6.32458 1004.39 8.28229 1014.2 23.7119C1021.2 34.7317 1016.93 47.81 1014.29 59.4958L1012.56 67.1954C1015.9 69.3305 1018.43 73.154 1018.31 77.1132L1018.3 77.418L1017.59 88.1551C1019.83 85.8846 1021.87 83.4122 1023.69 80.7784C1024.95 78.4675 1026.31 76.1969 1027.77 73.997C1036.36 61.0498 1055.63 72.3017 1048.55 86.1671C1047.19 88.8413 1045.66 91.3743 1044.02 93.8164C1042.16 97.419 1040.64 101.122 1039.48 104.927C1042.83 106.39 1045.41 109.64 1045.68 114.544C1046.31 125.998 1040.31 135.554 1030.77 141.558C1027.96 143.324 1025.06 143.668 1022.43 143.012C1021.97 143.637 1021.51 144.263 1021.06 144.899C1024.87 147.997 1028.3 151.529 1031.25 155.444C1040.13 154.112 1049.06 153.486 1057.99 153.466C1068.9 148.108 1081.97 148.219 1093.7 150.227C1101.25 151.519 1108.49 154.031 1115.92 155.838C1123.76 157.735 1131.71 157.805 1139.63 159.097C1149.62 160.722 1158.37 165.344 1163.88 172.72C1169.93 172.902 1176.29 175.385 1181.57 178.755C1193.85 186.606 1206.06 194.568 1218.31 202.47C1223.01 205.503 1224.77 210.346 1223.91 215.747L1223.85 216.093L1223.44 218.333L1224.41 219.712C1228.15 225.02 1232.23 230.579 1234.66 236.437C1239.15 242.926 1243.21 249.727 1246.8 256.741C1251.64 266.166 1255.64 276.157 1258.35 286.409C1259.02 289.003 1259.7 291.616 1260.14 294.26C1260.77 297.994 1259.8 300.89 1259.26 304.473C1258.6 309.014 1258.36 313.616 1257.65 318.167C1257.18 321.184 1254.62 322.667 1251.94 322.748C1252.95 330.428 1253.68 338.158 1254.37 345.827C1255.35 356.786 1256.01 367.776 1256.59 378.765C1259.55 383.074 1265.6 386.485 1269.96 387.666C1276.01 389.29 1282.36 387.524 1288.07 385.456C1291.67 384.154 1294.62 388.685 1292.87 391.712C1287.36 401.218 1275.58 401.178 1266.66 396.97C1262.89 395.194 1259.58 392.621 1257.12 389.27C1257.27 392.459 1257.43 395.648 1257.59 398.847L1257.74 401.744C1259.56 435.583 1263.47 470.585 1257.13 504.089C1246.15 562.125 1198.24 606.314 1139.71 609.745C1109 611.546 1083.42 602.453 1070.71 597.38C1057.99 592.308 1062.93 581.965 1071.76 584.921C1086.97 590.015 1114.91 597.602 1139.91 594.326C1198.84 586.603 1248.81 557.077 1243.68 429.908C1242.95 411.874 1240.71 393.831 1240.23 375.798C1239.76 358.169 1239.94 340.529 1239.16 322.91L1238.9 316.898C1238.6 309.874 1238.28 302.817 1237.75 295.784C1237.12 293.059 1236.59 290.294 1235.82 287.62C1233.71 280.344 1230.97 273.27 1227.55 266.519C1226.8 267.095 1225.95 267.508 1225.04 267.67C1218.08 268.921 1211.56 268.568 1205.04 265.662C1202 264.319 1199.33 262.533 1196.83 260.323C1195.64 259.284 1194.85 258.275 1194.22 257.225C1191.07 257.276 1187.92 256.327 1185.95 254.057C1183.7 251.469 1183.32 248.796 1184.2 246.321L1184.3 246.074L1184.07 245.994C1181.42 252.886 1176.12 258.951 1170.31 263.048C1161.13 269.547 1149.65 271.424 1138.63 271.595C1126.47 271.777 1113.65 269.9 1101.65 267.983C1098.48 267.478 1095.33 266.903 1092.24 266.126C1092.12 266.247 1091.99 266.388 1091.86 266.509C1081.57 276.389 1067.08 278.932 1054.01 273.291C1046.46 270.031 1040.13 264.784 1034.53 258.769C1034.45 261.918 1034.29 265.066 1034.02 268.184L1033.91 269.423C1033.35 275.23 1032.28 281.391 1027.9 285.582C1020.82 292.373 1010.55 289.649 1002.39 285.229C1002.4 285.441 1002.4 285.663 1002.4 285.885C1004.61 293.392 1006.82 300.911 1009.03 308.429L1009.51 310.03C1011.12 315.368 1012.89 320.713 1013.37 326.3C1014.3 336.977 1007.21 347.522 995.374 343.94C989.164 342.068 984.189 336.834 979.416 332.641L976.408 330.034C984.19 355.535 989.585 381.944 990.089 408.555C990.119 409.998 988.881 411.088 987.512 411.138C984.31 411.269 980.868 410.634 977.646 409.352C977.465 409.342 977.284 409.332 977.093 409.301C971.596 408.504 966.492 406.516 961.993 403.58C963.029 406.88 963.492 410.422 963.221 414.125C963.15 415.023 961.751 415.336 961.55 414.347C958.952 401.541 944.003 391.864 931.118 394.316C917.286 396.95 907.099 408.878 904.602 422.45C901.924 437.032 907.048 453.895 916.541 465.147C920.91 470.334 926.658 474.663 933.483 475.753C936.604 476.247 939.846 476.076 942.876 475.188C944.164 474.804 945.372 474.269 946.6 473.765C948.392 473.038 950.486 472.927 952.177 472.16C956.013 470.435 959.868 473.977 957.926 477.922C956.234 481.364 954.714 483.685 951.906 485.461C954.181 488.246 956.244 492.121 957.009 493.16C960.915 498.448 964.882 503.443 969.331 508.277C973.861 513.182 978.804 517.662 984.029 521.81L986.225 523.549C991.257 527.55 995.639 531.258 999.189 536.997C1001.99 541.528 998.364 547.674 993.119 547.603C976.71 547.371 964.781 532.92 956.285 520.296C955.077 518.49 953.939 516.582 952.882 514.625C952.5 515.24 952.077 515.815 951.604 516.34L952.54 518.863C955.318 526.29 943.349 531.144 939.876 524.211C937.349 519.186 934.42 514.403 931.158 509.882C929.235 509.609 927.353 508.439 926.306 506.925C923.658 503.08 920.689 499.195 918.182 495.098C916.793 493.776 915.363 492.504 913.904 491.263C913.481 491.637 913.048 492.01 912.635 492.404C910.803 496.591 908.538 500.416 905.729 504.019L905.127 504.787C899.747 511.585 892.738 518.542 884.066 520.205C881.418 520.71 878.871 517.41 881.217 515.301C887.287 509.831 894.465 506.108 900.062 500.002C902.819 496.994 905.351 493.682 907.529 490.21L908.025 489.406C908.387 488.811 908.76 488.216 909.142 487.61C906.615 485.885 904.089 484.149 901.562 482.413C894.606 488.37 885.548 491.095 877.854 496.03L877.09 496.531C870.133 501.193 862.805 490.88 868.382 485.218C874.53 479.001 879.662 471.587 885.108 464.677C882.547 459.948 881.335 454.356 880.881 448.705C880.702 447.106 880.562 445.505 880.422 443.905C876.516 443.965 872.59 442.623 869.268 440.312L868.009 439.414C863.973 440.706 859.735 441.331 855.678 441.22C846.134 440.938 842.228 430.009 848.198 423.096C854.288 416.032 864.949 414.488 873.395 417.919C873.667 417.778 873.949 417.627 874.221 417.475C873.818 415.619 873.907 413.934 874.366 412.455L874.233 411.553C872.375 408.696 871.154 405.434 870.691 401.988C870.325 399.259 870.399 396.553 871.029 393.858C871.239 392.961 871.675 392.031 872.008 391.096C871.321 389.358 870.918 387.562 870.793 385.755C870.601 385.526 870.409 385.291 870.228 385.037C866.037 379.138 866.884 372.031 870.872 367.258C870.89 366.954 870.919 366.65 870.96 366.349C870.726 365.822 870.512 365.29 870.317 364.752C866.42 360.812 863.559 356.07 864.092 350.194C864.405 346.736 865.823 343.624 867.968 341.298C867.588 340.17 867.551 338.863 868.012 337.772C864.589 328.644 865.022 317.649 867.486 307.44C866.942 305.886 866.66 304.2 866.721 302.414C867.003 294.836 873.546 287.873 881.297 287.963C882.231 287.971 883.104 288.094 883.944 288.272L883.955 288.092C884.252 285.817 884.876 283.715 885.787 281.829C885.339 281.666 884.925 281.433 884.561 281.123C879.594 283.78 874.338 285.81 868.828 287.193C864.776 288.211 860.625 283.594 863.144 279.781C864.313 278.012 865.602 276.424 866.992 274.973C865.017 274.984 863.011 275.118 860.983 275.379C857.339 275.854 853.272 273.361 850.906 269.991C847.966 272.857 845.017 275.712 842.067 278.568C834.598 285.824 823.313 280.486 822.135 270.919C819.91 270.324 817.837 269.315 816.015 267.872C804.237 272.998 791.563 275.813 778.607 276.348C769.305 276.732 763.869 265.873 768.218 258.204C771.137 253.057 774.761 248.436 778.939 244.419C772.456 246.407 765.761 247.84 758.926 248.759C755.232 249.253 750.007 246.185 748.527 242.785C742.87 229.706 743.353 216.073 749.866 203.348C750.118 202.843 750.4 202.359 750.671 201.874C751.346 200.189 752.081 198.524 752.876 196.889C744.863 188.513 744.168 176.061 748.487 165.636C746.755 162.821 746.091 159.43 747.269 156.362C750.621 147.532 755.453 139.379 761.554 132.375C760.97 131.245 760.456 130.044 760.023 128.753C756.591 118.308 760.567 105.704 768.59 98.4281C773.634 93.8466 779.432 91.1018 785.623 89.3459C788.23 84.7241 791.583 80.5564 795.489 77.0446C795.64 76.7116 795.791 76.3786 795.962 76.0455C802.042 64.5616 813.115 58.4059 824.984 56.983C825.447 52.4924 828.467 48.2036 832.856 46.811C834.064 42.9258 835.866 39.2122 838.343 35.8417C842.239 30.5337 848.711 28.031 854.812 31.5125C858.154 33.4198 861.355 35.6096 864.355 38.0315C865.703 37.3981 867.23 36.9882 868.954 36.8575L869.389 36.8307L879.314 36.3261C883.472 34.4794 887.619 32.5418 891.777 30.6548C894.274 28.586 897.062 26.8604 900.102 25.5788C903.545 24.1358 907.068 23.3184 910.602 23.0459C913.471 22.1074 916.36 21.2799 919.299 20.6341C926.205 19.1204 933.433 18.2727 940.601 18.3433C940.747 16.4837 940.82 14.6017 940.806 12.6976L940.792 11.7436C940.631 5.63837 945.493 0.764257 951.221 -0.103597ZM944.265 488.367C943.278 488.579 942.282 488.75 941.285 488.872C941.587 489.618 941.889 490.365 942.181 491.112C942.986 491.566 943.802 492 944.617 492.403C944.376 491.031 944.235 489.649 944.265 488.367ZM892.545 472.961L891.876 474.196C891.767 474.398 891.661 474.598 891.556 474.794C892.975 474.683 894.404 474.713 895.814 474.875L895.81 474.725C895.629 474.663 895.447 474.606 895.274 474.522C894.302 474.053 893.398 473.529 892.545 472.961ZM920.497 416.598C929.404 417.118 936.949 418.486 945.049 422.392L945.745 422.733C952.902 426.295 964.741 432.875 963.744 442.31C963.462 444.995 961.519 447.82 958.459 447.608C950.073 447.033 945.282 438.556 939.604 433.268C933.876 427.94 926.839 422.461 919.903 418.797C918.923 418.282 919.309 416.649 920.376 416.597L920.497 416.598ZM880.11 292.282C877.975 292.353 878.69 294.432 879.787 292.696C879.878 292.555 879.989 292.414 880.11 292.282ZM995.309 153.505C975.097 154.037 954.756 166.001 939.614 178.093C926.442 188.613 915.067 201.127 904.996 214.614C902.404 221.33 900.18 228.187 898.3 235.095C897.062 239.656 896.287 244.268 895.25 248.87L894.928 250.28C894.113 251.806 893.508 253.448 893.068 255.144C894.903 256.989 897.283 258.31 899.905 258.937C900.749 259.138 901.451 259.575 902.006 260.155C904.116 256.625 905.96 252.899 907.033 248.949L907.072 248.767C911.128 242.107 915.533 235.655 920.256 229.424C933.282 212.218 947.627 196.536 964.872 183.488C977.948 173.598 992.565 165.848 1008.11 160.813C1004.3 157.736 999.983 155.302 995.309 153.505Z" fill="black"/>
<path fill-rule="evenodd" clip-rule="evenodd" d="M1178.22 527.695C1170.79 529.848 1162.81 530.04 1155.24 527.817C1148.37 525.8 1141.31 521.361 1136.26 515.487C1131.76 510.27 1128.85 503.929 1128.97 497.16C1128.98 496.387 1129.26 495.742 1129.68 495.241C1130.14 494.702 1130.78 494.332 1131.46 494.171C1132.17 494.006 1132.91 494.064 1133.55 494.352C1134.12 494.613 1134.61 495.056 1134.92 495.703C1135.7 496.725 1136.47 497.731 1137.25 498.709C1143.5 506.427 1149.55 512.195 1158.94 514.264C1164.04 515.386 1169.13 514.888 1173.8 513.176C1178.81 511.342 1183.33 508.118 1186.87 503.993C1188.47 502.128 1190.36 501.367 1192.21 501.354C1194.3 501.34 1196.37 502.313 1197.93 503.869C1199.46 505.399 1200.49 507.477 1200.58 509.651C1200.67 511.559 1200.04 513.552 1198.39 515.331C1192.93 521.188 1185.87 525.479 1178.22 527.695ZM1177.99 431.028C1185.61 435.66 1197.22 446.461 1189.02 457.944C1179.38 468.069 1165.49 456.46 1158.64 451.21C1152.3 447.141 1145.17 457.606 1151.05 462.357C1200.51 498.984 1220.58 432.239 1181.85 425.582C1177.58 424.848 1176 429.595 1177.99 431.028ZM1106.73 410.647C1104.28 409.08 1101.4 408.543 1098.21 409.995C1095.72 411.13 1091.34 414.913 1088.3 419.885C1086.21 423.287 1084.74 427.278 1085.04 431.436C1085.12 432.401 1084.76 433.113 1084.2 433.639C1083.75 434.055 1083.11 434.36 1082.36 434.456C1081.72 434.537 1081 434.464 1080.42 434.282C1079.31 433.936 1078.72 433.217 1078.5 432.63C1076.37 426.967 1077.29 420.647 1079.68 414.945C1082.9 407.25 1088.76 400.805 1092.59 398.727C1099.16 395.17 1106.9 395.006 1113.48 398.63C1119.08 401.714 1122.57 406.694 1126.05 411.77C1126.79 412.849 1127.53 413.92 1128.29 414.972C1129.81 417.081 1129.96 419.172 1129.37 420.965C1128.72 422.952 1127.05 424.628 1124.97 425.506C1123.05 426.317 1120.82 426.431 1118.84 425.598C1117.18 424.894 1115.65 423.522 1114.68 421.194C1113.05 417.273 1110.33 412.947 1106.73 410.647ZM1231.08 419.37C1229.41 420.244 1228.09 420.507 1226.23 419.95C1225.2 419.641 1224.19 419.048 1223.39 418.252C1222.6 417.463 1222.03 416.482 1221.81 415.393C1221.27 412.707 1219.8 410.192 1217.71 408.552C1215.92 407.151 1213.66 406.408 1211.15 406.827C1208.45 407.279 1205.87 409.014 1204.1 411.059C1203.5 411.743 1203.04 412.521 1202.57 413.293C1201.7 414.736 1200.85 416.078 1199.64 417.139C1199.18 417.542 1198.49 417.821 1197.83 417.821C1197.56 417.821 1197.28 417.777 1197.02 417.696C1194.33 414.993 1193.81 412.944 1193.9 410.91C1193.99 408.778 1194.83 406.619 1196.19 404.605C1199.37 399.881 1205.42 396.007 1209.5 395.129C1215.09 393.928 1220.64 395.37 1225.09 398.493C1229.67 401.706 1233.06 406.695 1234.12 412.317C1234.38 413.671 1234.27 415.132 1233.75 416.399C1233.25 417.638 1232.37 418.698 1231.08 419.37ZM1119.06 360.273C1115.7 363.542 1111.73 364.049 1107.72 364.499C1105.49 364.752 1103.7 364.955 1101.95 365.351C1097.13 366.439 1092.37 368.078 1088.02 370.438C1083.48 372.905 1078.53 375.88 1074.97 379.692C1074.12 380.599 1073.33 381.55 1072.53 382.504C1071.8 383.374 1071.1 384.211 1070.36 385.019C1069.51 385.946 1068.7 386.918 1067.9 387.887C1067.4 388.705 1067.3 388.906 1067.2 389.116C1067.05 389.431 1066.88 389.783 1066.68 390.161C1066.4 390.678 1066.08 391.244 1065.75 391.758C1065.19 392.697 1064.89 392.955 1064.63 393.071C1064.2 393.262 1063.79 393.357 1063.4 393.306C1063.03 393.258 1062.68 393.079 1062.33 392.788C1060.61 391.332 1060.1 388.944 1060.15 386.408C1060.23 382.561 1061.65 378.301 1062.96 375.682C1066 369.597 1070.22 363.272 1075.29 358.73C1081.07 353.547 1087.41 349.622 1094.68 346.918C1099.2 345.237 1104.43 343.694 1109.35 343.889C1112.89 344.029 1116.28 345.083 1119.07 347.714C1120.79 349.329 1121.61 351.627 1121.61 353.923C1121.61 356.265 1120.75 358.62 1119.06 360.273ZM1237.9 390.209C1237.69 390.559 1237.4 390.8 1237.07 390.945C1236.72 391.096 1236.34 391.14 1235.97 391.078C1235.6 391.016 1235.25 390.849 1234.98 390.595C1234.71 390.351 1234.51 390.027 1234.42 389.631C1232.19 379.847 1227.87 372.567 1218.64 367.873C1214.1 365.564 1208.88 364.097 1203.93 362.927C1202.5 362.587 1200.98 362.366 1199.45 362.143C1194.66 361.444 1189.84 360.643 1186.72 356.77C1184.83 354.437 1184.04 351.453 1184.49 348.725C1184.91 346.156 1186.41 343.8 1189.14 342.389C1195.93 338.876 1204.37 342.323 1211.23 345.259C1211.74 345.477 1212.24 345.691 1212.73 345.897C1219.43 348.729 1225.55 352.467 1230.58 357.813C1234.57 362.055 1238.27 368.325 1239.76 374.775C1240.99 380.141 1240.7 385.619 1237.9 390.209Z" fill="black"/>
</g>
<defs>
<clipPath id="clip0_0_240">
<rect width="1443" height="964" fill="white"/>
</clipPath>
</defs>
</svg>
